<?xml version="1.0" encoding="iso-8859-1"?>
<!-- Uploaded to: SVG Repo, www.svgrepo.com, Generator: SVG Repo Mixer Tools -->
<!DOCTYPE svg PUBLIC "-//W3C//DTD SVG 1.1//EN" "http://www.w3.org/Graphics/SVG/1.1/DTD/svg11.dtd">
<svg fill="#000000" height="800px" width="800px" version="1.1" id="Capa_1" xmlns="http://www.w3.org/2000/svg" xmlns:xlink="http://www.w3.org/1999/xlink" 
	 viewBox="0 0 206.688 206.688" xml:space="preserve">
<g>
	<path d="M175.77,27.046H81.372c-17.048,0-30.918,13.87-30.918,30.919v4.391h54.125c21.492,0,38.976,17.485,38.976,38.976v19.05
		l15.004,15.003c1.296,1.297,3.012,2.011,4.831,2.011c3.785,0,6.865-3.075,6.865-6.855v-12.598h5.513
		c17.049,0,30.919-13.87,30.919-30.919v-29.06C206.688,40.916,192.818,27.046,175.77,27.046z"/>
	<path d="M104.58,72.357H50.454H28.976c-2.5,0-4.927,0.317-7.242,0.912C9.236,76.485,0,87.83,0,101.333v32.488
		c0,5.001,1.267,9.706,3.497,13.812c0.446,0.821,0.931,1.618,1.451,2.389c1.041,1.542,2.227,2.978,3.538,4.288
		c5.244,5.244,12.488,8.487,20.49,8.487H40.73v11.296c0,0.275,0.025,0.54,0.061,0.799c0.009,0.067,0.02,0.133,0.031,0.198
		c0.041,0.237,0.093,0.468,0.162,0.689c0.005,0.017,0.009,0.035,0.014,0.052c0.076,0.236,0.171,0.459,0.275,0.677
		c0.027,0.056,0.056,0.112,0.085,0.167c0.099,0.188,0.206,0.371,0.325,0.544c0.017,0.024,0.031,0.051,0.048,0.075
		c0.135,0.191,0.285,0.369,0.443,0.539c0.041,0.044,0.084,0.087,0.126,0.13c0.14,0.142,0.286,0.276,0.44,0.401
		c0.03,0.024,0.058,0.051,0.089,0.075c0.18,0.141,0.37,0.268,0.566,0.386c0.05,0.03,0.101,0.058,0.152,0.086
		c0.169,0.095,0.343,0.181,0.52,0.258c0.04,0.018,0.08,0.038,0.12,0.054c0.211,0.086,0.428,0.158,0.648,0.218
		c0.053,0.014,0.107,0.026,0.161,0.039c0.187,0.045,0.376,0.081,0.567,0.107c0.048,0.007,0.096,0.016,0.145,0.021
		c0.229,0.025,0.459,0.036,0.69,0.032c0.048-0.001,0.096-0.005,0.144-0.007c0.204-0.009,0.407-0.028,0.61-0.06
		c0.041-0.006,0.081-0.01,0.122-0.017c0.229-0.041,0.456-0.1,0.682-0.172c0.051-0.016,0.101-0.035,0.152-0.053
		c0.209-0.074,0.415-0.159,0.618-0.261c0.024-0.012,0.048-0.021,0.072-0.033c0.218-0.114,0.431-0.249,0.639-0.396
		c0.049-0.035,0.097-0.071,0.145-0.107c0.209-0.158,0.414-0.328,0.609-0.523l15.214-15.213h0h39.178
		c16.003,0,28.976-12.973,28.976-28.977v-15.877v-16.611C133.556,85.33,120.583,72.357,104.58,72.357z"/>
</g>
</svg>